<svg width="110" height="110" viewBox="0 0 110 110" fill="none" xmlns="http://www.w3.org/2000/svg">
<path d="M47.6761 21.5222C51.7208 21.5222 54.9997 18.2433 54.9997 14.1986C54.9997 10.1539 51.7208 6.875 47.6761 6.875C43.6314 6.875 40.3525 10.1539 40.3525 14.1986C40.3525 18.2433 43.6314 21.5222 47.6761 21.5222Z" fill="#F5F5F5"/>
<path d="M98.854 77.4465L88.5537 80.0214L84.4337 60.7946C84.1819 59.6432 83.5452 58.6121 82.6287 57.8712C81.7122 57.1302 80.5705 56.7238 79.3919 56.7188H60.3342L58.9459 44.6875H82.5001V37.8125H58.1527L57.2645 30.1156C57.1869 29.4429 56.9776 28.7921 56.6485 28.2003C56.3193 27.6085 55.8769 27.0874 55.3463 26.6666C54.8158 26.2459 54.2076 25.9337 53.5564 25.748C52.9052 25.5623 52.2239 25.5067 51.5512 25.5843L43.0142 26.5693L47.2872 63.5938H78.0034L83.3225 88.4162L100.522 84.1161L98.854 77.4465Z" fill="#F5F5F5"/>
<path d="M48.125 96.2502C42.1476 96.2493 36.3563 94.1714 31.7417 90.3721C27.1272 86.5727 23.9762 81.288 22.8279 75.422C21.6795 69.5559 22.6051 63.4732 25.4464 58.2142C28.2876 52.9553 32.868 48.8471 38.4037 46.5923L37.5919 39.5562C24.7378 43.9482 15.4688 56.1462 15.4688 70.4689C15.4688 88.4756 30.1183 103.125 48.125 103.125C53.7447 103.122 59.2686 101.67 64.1629 98.9083C69.0571 96.1467 73.1563 92.1692 76.0641 87.3604L73.9062 77.3439C70.4687 87.6564 60.7148 96.2502 48.125 96.2502Z" fill="#F5F5F5"/>
</svg>
