<svg width="110" height="110" viewBox="0 0 110 110" fill="none" xmlns="http://www.w3.org/2000/svg">
<path d="M99.6875 48.125H96.25V34.375H89.375V48.125H82.5V34.375H75.625V48.125H72.1875C71.2758 48.125 70.4015 48.4872 69.7568 49.1318C69.1122 49.7765 68.75 50.6508 68.75 51.5625V65.3125C68.7551 69.2728 70.1256 73.1102 72.6303 76.1778C75.135 79.2455 78.6208 81.3557 82.5 82.1528V92.8125C82.5 93.7242 82.1378 94.5985 81.4932 95.2432C80.8485 95.8878 79.9742 96.25 79.0625 96.25H17.1875C16.2758 96.25 15.4015 95.8878 14.7568 95.2432C14.1122 94.5985 13.75 93.7242 13.75 92.8125C13.75 91.9008 14.1122 91.0265 14.7568 90.3818C15.4015 89.7372 16.2758 89.375 17.1875 89.375H34.375C37.11 89.375 39.7331 88.2885 41.667 86.3545C43.601 84.4206 44.6875 81.7975 44.6875 79.0625C44.6875 76.3275 43.601 73.7044 41.667 71.7705C39.7331 69.8365 37.11 68.75 34.375 68.75H17.1875C16.2758 68.75 15.4015 68.3878 14.7568 67.7432C14.1122 67.0985 13.75 66.2242 13.75 65.3125C13.75 64.4008 14.1122 63.5265 14.7568 62.8818C15.4015 62.2372 16.2758 61.875 17.1875 61.875H34.375C37.1092 61.8723 39.7306 60.7849 41.664 58.8515C43.5974 56.9181 44.6848 54.2967 44.6875 51.5625V37.8125H48.125C51.7703 37.808 55.2651 36.3578 57.8427 33.7802C60.4203 31.2026 61.8705 27.7078 61.875 24.0625V13.75H51.5625C48.043 13.7552 44.6609 15.1169 42.1197 17.5519C40.3389 14.3207 37.7245 11.626 34.5487 9.74819C31.373 7.87041 27.7519 6.87825 24.0625 6.875H13.75V17.1875C13.7564 22.6556 15.9314 27.898 19.798 31.7645C23.6645 35.6311 28.9069 37.8061 34.375 37.8125H37.8125V51.5625C37.8125 52.4742 37.4503 53.3485 36.8057 53.9932C36.161 54.6378 35.2867 55 34.375 55H17.1875C14.4525 55 11.8294 56.0865 9.89546 58.0205C7.96149 59.9544 6.875 62.5775 6.875 65.3125C6.875 68.0475 7.96149 70.6706 9.89546 72.6045C11.8294 74.5385 14.4525 75.625 17.1875 75.625H34.375C35.2867 75.625 36.161 75.9872 36.8057 76.6318C37.4503 77.2765 37.8125 78.1508 37.8125 79.0625C37.8125 79.9742 37.4503 80.8485 36.8057 81.4932C36.161 82.1378 35.2867 82.5 34.375 82.5H17.1875C14.4525 82.5 11.8294 83.5865 9.89546 85.5205C7.96149 87.4544 6.875 90.0775 6.875 92.8125C6.875 95.5475 7.96149 98.1706 9.89546 100.105C11.8294 102.039 14.4525 103.125 17.1875 103.125H79.0625C81.7967 103.122 84.4181 102.035 86.3515 100.102C88.2849 98.1681 89.3723 95.5467 89.375 92.8125V82.1528C93.2542 81.3557 96.74 79.2455 99.2447 76.1778C101.749 73.1102 103.12 69.2728 103.125 65.3125V51.5625C103.125 50.6508 102.763 49.7765 102.118 49.1318C101.474 48.4872 100.599 48.125 99.6875 48.125ZM44.6875 27.5C44.6893 25.6772 45.4142 23.9296 46.7032 22.6407C47.9921 21.3517 49.7397 20.6268 51.5625 20.625H55V24.0625C54.9982 25.8853 54.2733 27.6329 52.9843 28.9218C51.6954 30.2108 49.9478 30.9357 48.125 30.9375H44.6875V27.5ZM34.375 30.9375C30.7297 30.933 27.2349 29.4828 24.6573 26.9052C22.0797 24.3276 20.6295 20.8328 20.625 17.1875V13.75H24.0625C27.7078 13.7545 31.2026 15.2047 33.7802 17.7823C36.3578 20.3599 37.808 23.8547 37.8125 27.5V30.9375H34.375ZM96.25 65.3125C96.25 68.0475 95.1635 70.6706 93.2295 72.6045C91.2956 74.5385 88.6725 75.625 85.9375 75.625C83.2025 75.625 80.5794 74.5385 78.6455 72.6045C76.7115 70.6706 75.625 68.0475 75.625 65.3125V55H96.25V65.3125Z" fill="#F5F5F5"/>
</svg>
