<svg width="110" height="110" viewBox="0 0 110 110" fill="none" xmlns="http://www.w3.org/2000/svg">
<path d="M48.125 57.0281L39.2219 48.125L34.375 52.9719L48.125 66.7219L75.625 39.2219L70.7781 34.375L48.125 57.0281Z" fill="#F5F5F5"/>
<path d="M55 103.125L33.77 91.8053C27.7177 88.5854 22.6565 83.7783 19.1294 77.8997C15.6024 72.0211 13.7427 65.293 13.75 58.4375V13.75C13.7518 11.9272 14.4768 10.1796 15.7657 8.89065C17.0546 7.60173 18.8022 6.87682 20.625 6.875H89.375C91.1978 6.87682 92.9454 7.60173 94.2344 8.89065C95.5233 10.1796 96.2482 11.9272 96.25 13.75V58.4375C96.2573 65.293 94.3976 72.0211 90.8706 77.8997C87.3436 83.7783 82.2823 88.5854 76.23 91.8053L55 103.125ZM20.625 13.75V58.4375C20.6193 64.0468 22.1413 69.5518 25.0276 74.3616C27.914 79.1713 32.0557 83.1042 37.0081 85.7381L55 95.3322L72.9919 85.7416C77.9449 83.1074 82.0869 79.1739 84.9733 74.3635C87.8596 69.5531 89.3813 64.0474 89.375 58.4375V13.75H20.625Z" fill="#F5F5F5"/>
</svg>
