<svg width="110" height="110" viewBox="0 0 110 110" fill="none" xmlns="http://www.w3.org/2000/svg">
<path d="M55 27.5002C71.2113 27.5002 86.3363 33.7014 97.5929 44.9581L104.074 38.4772C91.0892 25.4881 73.6588 18.3335 55 18.3335C36.3413 18.3381 18.9109 25.4881 5.92627 38.4772L12.4071 44.9581C23.6638 33.7014 38.7888 27.5002 55 27.5002ZM80.9921 65.5739C66.9029 51.4847 43.0971 51.4847 29.0079 65.5739L35.4888 72.0547C46.0625 61.481 63.9375 61.481 74.5113 72.0547L80.9921 65.5739Z" fill="#F5F5F5"/>
<path d="M93.67 51.7597C72.715 30.7956 37.2905 30.7956 16.3354 51.7597L22.8163 58.2406C40.265 40.7918 69.7405 40.7918 87.1892 58.2406L93.67 51.7597Z" fill="#F5F5F5"/>
<path d="M54.9997 91.6668C60.0623 91.6668 64.1663 87.5628 64.1663 82.5002C64.1663 77.4375 60.0623 73.3335 54.9997 73.3335C49.9371 73.3335 45.833 77.4375 45.833 82.5002C45.833 87.5628 49.9371 91.6668 54.9997 91.6668Z" fill="#F5F5F5"/>
</svg>
