<svg width="110" height="110" viewBox="0 0 110 110" fill="none" xmlns="http://www.w3.org/2000/svg">
<path fill-rule="evenodd" clip-rule="evenodd" d="M13.75 92.8125V48.125H20.625V92.8125C20.625 93.7242 20.9872 94.5985 21.6318 95.2432C22.2765 95.8878 23.1508 96.25 24.0625 96.25H85.9375C86.8492 96.25 87.7235 95.8878 88.3682 95.2432C89.0128 94.5985 89.375 93.7242 89.375 92.8125V48.125H96.25V92.8125C96.25 95.5476 95.1635 98.1706 93.2295 100.105C91.2956 102.039 88.6725 103.125 85.9375 103.125H24.0625C21.3275 103.125 18.7044 102.039 16.7705 100.105C14.8365 98.1706 13.75 95.5476 13.75 92.8125V92.8125ZM89.375 17.1875V41.25L75.625 27.5V17.1875C75.625 16.2758 75.9872 15.4015 76.6318 14.7568C77.2765 14.1122 78.1508 13.75 79.0625 13.75H85.9375C86.8492 13.75 87.7235 14.1122 88.3682 14.7568C89.0128 15.4015 89.375 16.2758 89.375 17.1875Z" fill="#F5F5F5"/>
<path fill-rule="evenodd" clip-rule="evenodd" d="M50.1432 10.3112C51.4325 9.02238 53.1809 8.29834 55.0039 8.29834C56.8269 8.29834 58.5752 9.02238 59.8645 10.3112L105.563 56.0025C106.208 56.648 106.571 57.5234 106.571 58.4363C106.571 59.3491 106.208 60.2245 105.563 60.87C104.917 61.5155 104.042 61.8781 103.129 61.8781C102.216 61.8781 101.341 61.5155 100.695 60.87L55.0039 15.1719L9.3126 60.87C8.66713 61.5155 7.79169 61.8781 6.87885 61.8781C5.96602 61.8781 5.09057 61.5155 4.4451 60.87C3.79963 60.2245 3.43701 59.3491 3.43701 58.4363C3.43701 57.5234 3.79963 56.648 4.4451 56.0025L50.1432 10.3112Z" fill="#F5F5F5"/>
<path d="M64.6825 48.0076L64.8415 48.5713L65.2304 49.9506L65.2305 49.9511L65.2309 49.9524L65.2314 49.9542L65.2323 49.957L65.2371 49.9739L65.2551 50.0383C65.2708 50.0947 65.2935 50.1778 65.3223 50.2865C65.3798 50.5041 65.4614 50.8244 65.5592 51.239C65.7548 52.0682 66.0148 53.2748 66.2746 54.7913C66.7941 57.8238 67.3134 62.0992 67.3134 67.0763C67.3134 72.1934 66.1502 75.6669 64.2736 77.8669C62.388 80.0801 59.8911 80.8084 57.8581 80.8084C55.5536 80.8084 53.6044 79.7458 52.121 78.7025C51.3765 78.1799 50.6901 77.6229 50.1653 77.1821C49.9752 77.0224 49.8043 76.8763 49.6607 76.7535C49.6066 76.7072 49.5564 76.6643 49.5104 76.6251C49.4253 76.5527 49.3562 76.4944 49.3024 76.4504C49.2423 76.4014 49.2196 76.3855 49.2197 76.3856L48.8031 76.1202L49.0634 75.7003L50.3865 73.5666L50.6542 73.1349L51.0816 73.4094C51.5479 73.7088 52.0051 74.0984 52.4753 74.4991L52.4925 74.5137C52.9768 74.9263 53.491 75.3641 54.0972 75.7916C55.324 76.656 56.6698 77.2803 57.8581 77.2803C59.0939 77.2803 60.459 76.9019 61.6054 75.5595C62.7618 74.2054 63.8216 71.6677 63.8216 67.075C63.8216 59.6944 62.7857 54.7237 62.298 52.7248C60.2728 53.4466 58.1175 53.99 56.015 54.5094C55.896 54.5388 55.7771 54.5681 55.6585 54.5974C53.4876 55.133 51.3861 55.6516 49.5013 56.3272C47.3073 57.1148 45.5321 58.097 44.3307 59.4309C43.1431 60.751 42.396 62.4642 42.396 65.1397C42.396 67.3687 43.5818 68.7627 44.9519 69.7504C45.4346 70.0949 45.9487 70.3908 46.487 70.6343C48.6527 67.1939 51.9046 62.9658 56.8285 57.6126L57.176 57.2348L57.5445 57.5921L59.3361 59.3289L59.6858 59.6679L59.3561 60.0263C50.892 69.2295 47.6808 74.9311 46.5361 78.3341C45.9667 80.0283 45.9029 81.146 45.9388 81.9444C45.9528 82.2574 45.9942 82.5071 46.0392 82.7792C46.0508 82.8492 46.0626 82.9208 46.0743 82.9952C46.1311 83.3569 46.1758 83.7492 46.1318 84.2622L46.0886 84.765L45.5862 84.7171L43.1207 84.482C42.9172 84.474 42.7978 84.3466 42.7762 84.3234C42.7348 84.2791 42.7114 84.2375 42.7032 84.2226C42.6844 84.1882 42.674 84.1592 42.6712 84.1515L42.6711 84.1513C42.6636 84.1304 42.659 84.1133 42.6579 84.1089C42.6559 84.1016 42.6544 84.0954 42.6535 84.0913C42.65 84.0767 42.6469 84.0612 42.6446 84.0491C42.6394 84.0222 42.6327 83.9846 42.625 83.9381C42.6096 83.8443 42.5889 83.7074 42.5669 83.5343C42.5229 83.1881 42.473 82.6936 42.448 82.1069C42.397 80.9111 42.5109 79.2695 43.2123 77.1866C43.5569 76.1574 44.0578 74.9858 44.7169 73.7032C44.0928 73.3904 43.4943 73.0269 42.9275 72.6161C41.0089 71.2309 38.9043 68.7614 38.9043 65.1397C38.9043 61.7361 39.9785 59.0343 41.759 57.0624L64.6825 48.0076ZM64.6825 48.0076L64.1507 48.2531L62.8689 48.8446M64.6825 48.0076L62.8689 48.8446M62.8689 48.8446C60.9378 49.708 58.5631 50.3083 56.0219 50.9164C55.8012 50.9692 55.5794 51.022 55.3565 51.0751C53.0301 51.6293 50.6 52.2082 48.3455 53.0157L48.3452 53.0158C45.8725 53.9029 43.5267 55.1036 41.7592 57.0623L62.8689 48.8446Z" fill="#F5F5F5" stroke="#F5F5F5"/>
</svg>
