<svg width="110" height="110" viewBox="0 0 110 110" fill="none" xmlns="http://www.w3.org/2000/svg">
<path d="M91.812 101.989C85.4412 101.989 79.0703 100.629 73.4787 98.1421C62.2953 103.088 47.9953 103.088 36.812 98.1421C31.2203 100.629 24.8495 101.989 18.4787 101.989H9.31201V107.773H18.4787C24.7578 107.773 31.037 106.761 36.812 104.881C48.2703 108.641 62.0203 108.641 73.4787 104.881C79.2537 106.761 85.487 107.773 91.812 107.773H100.979V101.989" fill="#F5F5F5"/>
<path d="M56.0217 48.6032L54.9996 49.5217L53.9729 48.6032C52.0652 46.8875 49.4923 45.9254 46.8115 45.9254C44.1306 45.9254 41.5577 46.8875 39.65 48.6032C38.7032 49.4329 37.95 50.4282 37.4355 51.5294C36.921 52.6307 36.6558 53.8152 36.6558 55.012C36.6558 56.2088 36.921 57.3933 37.4355 58.4946C37.95 59.5958 38.7032 60.5911 39.65 61.4209L54.9996 75.1529L70.3492 61.4209C71.296 60.5911 72.0492 59.5958 72.5637 58.4946C73.0782 57.3933 73.3434 56.2088 73.3434 55.012C73.3434 53.8152 73.0782 52.6307 72.5637 51.5294C72.0492 50.4282 71.296 49.4329 70.3492 48.6032C68.4407 46.8872 65.867 45.925 63.1854 45.925C60.5038 45.925 57.9302 46.8872 56.0217 48.6032Z" fill="#F5F5F5"/>
<path d="M99.4903 47.1501L58.2403 9.57377C57.815 9.18571 57.3099 8.87784 56.7539 8.66778C56.1978 8.45773 55.6018 8.34961 54.9998 8.34961C54.3979 8.34961 53.8019 8.45773 53.2458 8.66778C52.6898 8.87784 52.1847 9.18571 51.7594 9.57377L10.5094 47.1501C9.86863 47.734 9.43226 48.4779 9.2555 49.2876C9.07873 50.0974 9.16949 50.9368 9.51631 51.6996C9.86313 52.4624 10.4504 53.1144 11.204 53.5732C11.9575 54.0319 12.8435 54.2769 13.7498 54.2771H18.3332V83.5031C18.3332 88.1083 22.4444 91.8534 27.4998 91.8534H82.4998C87.5553 91.8534 91.6665 88.1083 91.6665 83.5031V54.2771H96.2498C97.1562 54.2769 98.0421 54.0319 98.7957 53.5732C99.5492 53.1144 100.137 52.4624 100.483 51.6996C100.83 50.9368 100.921 50.0974 100.744 49.2876C100.567 48.4779 100.131 47.734 99.4903 47.1501ZM82.5044 83.5031H27.4998V43.4843L54.9998 18.4334L82.4998 43.4843V62.6274L82.5044 83.5031Z" fill="#F5F5F5"/>
</svg>
